<svg data-v-fde0c5aa="" xmlns="http://www.w3.org/2000/svg" viewBox="0 0 300 300" class="iconAbove"><!----><defs data-v-fde0c5aa=""><!----></defs><rect data-v-fde0c5aa="" fill="transparent" x="0" y="0" width="300px" height="300px" class="logo-background-square"></rect><defs data-v-fde0c5aa=""><!----></defs><g data-v-fde0c5aa="" id="7e19c410-e210-41bd-beb0-74e9b8937fe8" fill="#000000"><path d=""></path></g><defs data-v-fde0c5aa=""><linearGradient data-v-fde0c5aa="" gradientTransform="rotate(25)" id="54177fbc-4cc8-441d-832b-307c718f5d27" x1="0%" y1="0%" x2="100%" y2="0%"><stop data-v-fde0c5aa="" offset="0%" stop-color="#006678" stop-opacity="1"></stop><stop data-v-fde0c5aa="" offset="100%" stop-color="#4FA8FF" stop-opacity="1"></stop></linearGradient></defs><g data-v-fde0c5aa="" id="69f6acfd-d8ba-49d0-8a47-56e18d29d58a" stroke="none" fill="url(#54177fbc-4cc8-441d-832b-307c718f5d27)"><path d="M49.569 22.967c-9.975-5.691-20.677-9.125-31.045-9.962v58.351c10.367.814 21.05 4.154 31.045 9.699V22.967zM82.444 13.005c-10.368.838-21.071 4.271-31.045 9.962v58.087c9.993-5.545 20.679-8.885 31.045-9.699v-58.35z"></path><path d="M49.229 84.073c.814.278 1.671.29 2.485.012 11.657-5.043 23.865-7.313 35.798-6.79V19.524a67.09 67.09 0 00-3.24-.055v53.594l-.852.056c-10.672.697-21.732 4.177-32.021 10.048a2.826 2.826 0 01-1.83 0c-10.29-5.871-21.349-9.351-32.021-10.048l-.854-.056V19.469a65.788 65.788 0 00-3.239.055v57.771c11.932-.524 24.114 1.735 35.774 6.778z"></path><path d="M92.579 26.009c-1.07-.149-2.157-.228-3.237-.335v53.55l-.968-.056c-12.195-.699-25.06 1.777-36.975 7.065l-.916.381-.915-.381c-11.917-5.288-24.781-7.765-36.976-7.065l-.967.056v-53.55c-1.081.108-2.168.187-3.238.335v58.707a4.876 4.876 0 011.044.748c12.951-1.75 26.393-1.536 39.18 2.651a19.022 19.022 0 011.873-.095c.661 0 1.285.037 1.872.095 12.785-4.188 26.229-4.401 39.179-2.651 0 0 .474-.462 1.044-.748V26.009z"></path></g><!----></svg>